<svg xmlns="http://www.w3.org/2000/svg" viewBox="0 0 496.96 405.88"><defs><style>.cls-1{fill:#c7c7c7;}.cls-2{fill:#ccc;}.cls-3{fill:#485e61;}.cls-4{fill:#5dba3e;}.cls-5{fill:#fff;}.cls-6{fill:#121e20;}.cls-7{fill:#22393d;}.cls-8{fill:#4358eb;}.cls-9{fill:#203ed3;}.cls-10{fill:#bcbdbf;}.cls-11{fill:#96999a;}.cls-12{fill:#231f20;}.cls-13{fill:#ffcdc2;}.cls-14{fill:#e0a4ab;}.cls-15{fill:#424143;}.cls-16{fill:#ea7185;}.cls-17{fill:#404041;}.cls-18{fill:#afafaf;}.cls-19{fill:#ffc300;}.cls-20{fill:#449935;}.cls-21{fill:#59aa48;}.cls-22{fill:#6fce5b;}.cls-23{fill:#395356;}.cls-24{fill:#121e21;}.cls-25{fill:#ececec;}</style></defs><g id="Layer_2" data-name="Layer 2"><g id="Layer_1-2" data-name="Layer 1"><rect class="cls-1" y="375.05" width="496.96" height="3"/><path class="cls-2" d="M465.38,313.16H55.59a14.38,14.38,0,0,1-14.37-14.37V49.38A14.38,14.38,0,0,1,55.59,35H465.38a14.38,14.38,0,0,1,14.37,14.37V298.79A14.39,14.39,0,0,1,465.38,313.16ZM55.59,47a2.37,2.37,0,0,0-2.37,2.37V298.79a2.37,2.37,0,0,0,2.37,2.37H465.38a2.37,2.37,0,0,0,2.37-2.37V49.38A2.37,2.37,0,0,0,465.38,47Z"/><path class="cls-3" d="M278.78,135.43H270V118.38a15.32,15.32,0,1,0-30.63,0v17.05h-8.75V118.38a24.07,24.07,0,1,1,48.13,0Z"/><rect class="cls-4" x="219.57" y="130.73" width="71.62" height="71.62" rx="4.46"/><path class="cls-5" d="M262.14,160.25a6.76,6.76,0,1,0-9.68,6.07v8.17a2.92,2.92,0,0,0,5.84,0v-8.17A6.75,6.75,0,0,0,262.14,160.25Z"/><path class="cls-2" d="M307.15,242H203.61a13.93,13.93,0,1,1,0-27.85H307.15a13.93,13.93,0,1,1,0,27.85ZM203.61,216.66a11.42,11.42,0,0,0,0,22.83H307.15a11.42,11.42,0,0,0,0-22.83Z"/><path class="cls-6" d="M96.46,377.91s2.7,6.18-10.36,11c-7.87,2.89-10.19,15.11,0,16.86S117,392,117,392V375.88Z"/><path class="cls-6" d="M173.4,377.91s-2.7,6.18,10.36,11c7.87,2.89,10.19,15.11,0,16.86S152.85,392,152.85,392V375.88Z"/><path class="cls-7" d="M95.49,249.37s-.82,98-6.56,129.54c0,0,15.58,8.61,31.36,3.69l9.88-114.78,16.15,114s25.83,2.87,32.38-3.69c0,0-9.42-51.24-10.65-75.83S162.31,235,162.31,235Z"/><polygon class="cls-6" points="129.31 253.75 129.31 261.54 132.38 261.54 132.38 251.6 129.31 253.75"/><rect class="cls-6" x="38.46" y="318.25" width="137.22" height="1" transform="translate(-219.7 398.03) rotate(-85.07)"/><rect class="cls-6" x="155.09" y="248.65" width="1" height="137.22" transform="translate(-26.45 14.4) rotate(-4.88)"/><path class="cls-8" d="M103.08,137.06l-8.45,4.77a12.84,12.84,0,0,0-6.45,9.68c-1.78,15-5.75,49.22-3.55,51.75,2.66,3.08,10.86,12.3,10.86,12.3l-2,33.2s36.4,12.63,74.53-2.29L165,214.53s11.64-9.62,11.87-17.61c.37-13.29-.68-34.07-1.34-45.21a12.87,12.87,0,0,0-7.4-10.89l-8-3.76Z"/><polygon class="cls-9" points="116.4 129.82 103.08 137.06 111 167.39 117.96 167.39 113.93 176.41 129.31 199.57 147.14 173.54 143.18 168.01 149.88 165.25 160.05 137.06 144.68 128.72 116.4 129.82"/><path class="cls-10" d="M126.4,142.65l-5,4.65,2.46,11.38,12.81-.1,3.07-10.73-4.22-5.34S129.49,139.08,126.4,142.65Z"/><polygon class="cls-11" points="119.3 126.54 116.4 129.82 121.42 147.3 131.21 138.28 139.76 147.85 144.68 128.72 142.52 127.08 119.3 126.54"/><path class="cls-12" d="M127.26,146.28l-3.38,12.4,5.94,27.77,6.87-27.87-2.77-12.3S130.74,141.26,127.26,146.28Z"/><path class="cls-9" d="M95.49,215.56c2.26,2,4.42,4.11,6.56,6.24s4.22,4.3,6.3,6.48,4.1,4.41,6.1,6.67,4,4.54,5.84,6.91c-2.25-2-4.42-4.11-6.55-6.24s-4.23-4.3-6.3-6.48-4.11-4.41-6.1-6.67S97.37,217.93,95.49,215.56Z"/><rect class="cls-9" x="128.31" y="194.73" width="2" height="57.8"/><path class="cls-13" d="M125.89,227.86s-5.8,3.62-7.51,4.88-5.19,2.15-4,3.59,5.65,0,5.65,0l-5,4.3s-.75,2.67,2,2.39c0,0-.48,3.56,2.53,2.87,0,0-.48,3.62,2.32,2.94,0,0,.21,3.19,3,2.12,4.8-1.83,10.6-7.62,12.43-9.09Z"/><path class="cls-9" d="M129.86,223.62l-4,4.24s6.43,11,11.41,14l3.42-2.73S131.77,230.52,129.86,223.62Z"/><path class="cls-14" d="M136.83,241.63s-2.11.06-1.46,1.7c0,0-2.84-.06-2.36,2.29,0,0-2.8-.54-2.53,2,0,0-2.94-.79-2.42,2.22,0,0,2.63,2.66,3.79-.79a2.35,2.35,0,0,0,2.66-1.88,3,3,0,0,0,2.32-2,1.48,1.48,0,0,0,1.37-1.81C137.86,241.76,136.83,241.63,136.83,241.63Z"/><path class="cls-9" d="M103.08,155.3c0,2.89,0,5.78,0,8.67s-.07,5.78-.13,8.67q-.16,8.66-.45,17.32l-.09-.34c1.93,3.08,4,6.13,6.07,9.12s4.26,5.94,6.52,8.81,4.59,5.69,7.05,8.4a88.84,88.84,0,0,0,7.85,7.67c1.7,8-20.28-21.18-22.41-24.18s-4.2-6-6.13-9.18l-.09-.16v-.18q.33-8.67.78-17.32c.15-2.88.31-5.77.49-8.65S102.85,158.18,103.08,155.3Z"/><path class="cls-9" d="M157.59,159.6c.2,2.56.35,5.12.51,7.68s.3,5.12.44,7.68l.36,7.68.32,7.69v.22l-.15.18c-4.71,5.73-28,34.44-29.13,35.71-1.33,1.51.5-3.72-.85-2.23,2.25-3,12.55-14.21,14.88-17.09q7-8.64,14.17-17.16l-.13.41-.2-7.69-.15-7.69c0-2.56-.07-5.13-.07-7.69S157.57,162.17,157.59,159.6Z"/><path class="cls-9" d="M140.72,239.13c1.95-2.14,4-4.2,6-6.25s4.08-4.07,6.12-6.09l6.16-6c2-2,4.1-4,6-6.22a45.29,45.29,0,0,1-5.27,6.9c-1.92,2.15-3.94,4.22-6,6.25s-4.17,4-6.33,5.91S143,237.37,140.72,239.13Z"/><path class="cls-14" d="M120,236.33a8.15,8.15,0,0,1,1.76-1.62,8.25,8.25,0,0,1,2.12-1.12,8.22,8.22,0,0,1-1.76,1.63A8.55,8.55,0,0,1,120,236.33Z"/><path class="cls-14" d="M117,243a7.44,7.44,0,0,1,3.28-2.66A7.29,7.29,0,0,1,117,243Z"/><path class="cls-14" d="M119.45,245.69a6.46,6.46,0,0,1,1.45-1.58,6.58,6.58,0,0,1,1.83-1.09,6.42,6.42,0,0,1-1.44,1.58A6.73,6.73,0,0,1,119.45,245.69Z"/><path class="cls-14" d="M121.94,248.9a6.61,6.61,0,0,1,1.44-1.58,6.78,6.78,0,0,1,1.84-1.09,6.42,6.42,0,0,1-1.44,1.58A6.89,6.89,0,0,1,121.94,248.9Z"/><path class="cls-14" d="M119.3,117.2v9.34s6.66,10.52,11.17,10.52,11.12-7.52,12.05-10l.66-9.88Z"/><path class="cls-14" d="M151.92,104s1.64,7.38-5,7.38S148.92,96.61,151.92,104Z"/><path class="cls-14" d="M111.82,102.62a4.28,4.28,0,0,0-.81,2.81c.12,1.9,1,5,5.8,5C123.23,110.41,115.67,97.4,111.82,102.62Z"/><path class="cls-13" d="M114.89,104s.41,10.52,4.38,14.49,9.43,8.6,13.8,8.6,12.43-8.88,13.66-11.54,2.4-12.52,2.4-12.52a16.78,16.78,0,0,0-2.4-14.74c-5.19-7.11-2.59-11.61-16.4-9s-17.18,14.46-16.26,18.45A25.36,25.36,0,0,1,114.89,104Z"/><path class="cls-15" d="M148.78,104s1.77-2.6,2.51-.8c0,0,1.61-5,.81-9H154s-.33-6.75-4.88-10.39a9.11,9.11,0,0,1,2.74-.35c-2-2.58-9-5.61-11.1-6.25a2.15,2.15,0,0,0,1.63-1.87,15.17,15.17,0,0,0-6.83,1.24A12,12,0,0,0,128,75.29l2.19,1.51a18.53,18.53,0,0,0-12.85,4.1L120,81s-6.56,4-8.88,9.29l2.32-.14s-1.92,2.39-1.23,12.09c0,0,.82-1.16,2.73,1.71,0,0,.14-7.38,1.51-9.43l-.69,6.84c1.79-5.82,5.49-10.69,10-15.17,0,0-3.08,5.58-5.6,7.65A23,23,0,0,0,131.15,85a21.06,21.06,0,0,1-5.73,7.24s10.38-1.91,11.34-10.66c0,0,1.23,7.66,7.1,11.89L143,89.54a10.67,10.67,0,0,0,5.74,6.12A24.11,24.11,0,0,1,148.78,104Z"/><path class="cls-15" d="M119.59,100.25a10.71,10.71,0,0,1,9.95,0,2.23,2.23,0,0,1,1.15,1.73c.23,2.47.08,8.17-6.18,8.17s-6.41-5.56-6.19-8.08A2.25,2.25,0,0,1,119.59,100.25Z"/><path class="cls-15" d="M135.05,100.25a10.71,10.71,0,0,1,9.95,0,2.23,2.23,0,0,1,1.15,1.73c.23,2.47.09,8.17-6.18,8.17s-6.41-5.56-6.19-8.08A2.25,2.25,0,0,1,135.05,100.25Z"/><path class="cls-15" d="M148.78,104.5H114.89c-.17,0-.31-.23-.31-.51s.14-.5.31-.5h33.89c.17,0,.31.22.31.5S149,104.5,148.78,104.5Z"/><path class="cls-16" d="M127,119.21s4.37-5.22,10.31-.15C137.27,119.06,131.6,117.72,127,119.21Z"/><path class="cls-14" d="M132.35,107.82a8.91,8.91,0,0,1-.13,1.67c-.08.53-.19,1-.28,1.53a6.37,6.37,0,0,0-.11.68,2.68,2.68,0,0,1,0,.41v0l.06.06.14.12a2.17,2.17,0,0,0,.29.24,5.17,5.17,0,0,0,.69.46,1.83,1.83,0,0,1-.9.12,3.58,3.58,0,0,1-.45-.09l-.22-.07-.11,0-.17-.11a1.54,1.54,0,0,1-.49-1.1,3.5,3.5,0,0,1,.06-.93,5.78,5.78,0,0,1,.58-1.62A4.87,4.87,0,0,1,132.35,107.82Z"/><path class="cls-17" d="M125.72,139.83l1.54,6.45h6.66l2.77-6.45s-1.44-5.54-5.48-5.54S125.72,139.83,125.72,139.83Z"/><path class="cls-2" d="M223.28,227.33H221l1.64-1.64a.77.77,0,0,0,0-1.07.75.75,0,0,0-1.06,0l-1.64,1.64V224a.75.75,0,0,0-1.5,0v2.32l-1.64-1.65a.75.75,0,0,0-1.06,0,.77.77,0,0,0,0,1.07l1.64,1.64H215a.75.75,0,0,0,0,1.5h2.32l-1.64,1.64a.75.75,0,0,0,0,1.06.75.75,0,0,0,1.06,0l1.64-1.64v2.31a.75.75,0,0,0,1.5,0v-2.31l1.64,1.64a.75.75,0,0,0,1.06,0,.75.75,0,0,0,0-1.06L221,228.83h2.32a.75.75,0,0,0,0-1.5Z"/><path class="cls-2" d="M241.39,227.33h-2.31l1.64-1.64a.77.77,0,0,0,0-1.07.75.75,0,0,0-1.06,0L238,226.26V224a.75.75,0,0,0-1.5,0v2.32l-1.64-1.65a.76.76,0,0,0-1.07,1.07l1.64,1.64h-2.31a.75.75,0,0,0,0,1.5h2.31l-1.64,1.64a.75.75,0,0,0,0,1.06.76.76,0,0,0,1.07,0l1.64-1.64v2.31a.75.75,0,0,0,1.5,0v-2.31l1.64,1.64a.75.75,0,0,0,.53.22.79.79,0,0,0,.53-.22.75.75,0,0,0,0-1.06l-1.64-1.64h2.31a.75.75,0,0,0,0-1.5Z"/><path class="cls-2" d="M259.51,227.33h-2.32l1.64-1.64a.77.77,0,0,0,0-1.07.75.75,0,0,0-1.06,0l-1.64,1.64V224a.75.75,0,0,0-1.5,0v2.32L253,224.62a.75.75,0,0,0-1.06,0,.77.77,0,0,0,0,1.07l1.64,1.64h-2.32a.75.75,0,0,0,0,1.5h2.32l-1.64,1.64a.75.75,0,0,0,0,1.06.75.75,0,0,0,1.06,0l1.64-1.64v2.31a.75.75,0,0,0,1.5,0v-2.31l1.64,1.64a.75.75,0,0,0,1.06,0,.75.75,0,0,0,0-1.06l-1.64-1.64h2.32a.75.75,0,0,0,0-1.5Z"/><path class="cls-2" d="M277.62,227.33H275.3l1.64-1.64a.75.75,0,0,0-1.06-1.07l-1.64,1.64V224a.75.75,0,0,0-1.5,0v2.32l-1.64-1.65a.75.75,0,0,0-1.06,0,.77.77,0,0,0,0,1.07l1.64,1.64h-2.32a.75.75,0,0,0,0,1.5h2.32L270,230.47a.75.75,0,0,0,0,1.06.79.79,0,0,0,.53.22.75.75,0,0,0,.53-.22l1.64-1.64v2.31a.75.75,0,0,0,1.5,0v-2.31l1.64,1.64a.79.79,0,0,0,.53.22.75.75,0,0,0,.53-.22.74.74,0,0,0,0-1.06l-1.64-1.64h2.32a.75.75,0,0,0,0-1.5Z"/><path class="cls-2" d="M295.74,227.33h-2.32l1.64-1.64a.77.77,0,0,0,0-1.07.75.75,0,0,0-1.06,0l-1.64,1.64V224a.75.75,0,1,0-1.5,0v2.32l-1.64-1.65a.75.75,0,0,0-1.06,1.07l1.64,1.64h-2.32a.75.75,0,0,0,0,1.5h2.32l-1.64,1.64a.74.74,0,0,0,0,1.06.77.77,0,0,0,.53.22.79.79,0,0,0,.53-.22l1.64-1.64v2.31a.75.75,0,0,0,1.5,0v-2.31l1.64,1.64a.77.77,0,0,0,.53.22.79.79,0,0,0,.53-.22.75.75,0,0,0,0-1.06l-1.64-1.64h2.32a.75.75,0,0,0,0-1.5Z"/><rect class="cls-18" x="409.78" y="186.91" width="4.16" height="187.2"/><rect class="cls-18" x="408.5" y="356.03" width="6.06" height="35.44" rx="3.03" transform="translate(785.29 -37.78) rotate(90)"/><polygon class="cls-19" points="443.05 200.2 380.66 200.2 385.39 137.82 438.32 137.82 443.05 200.2"/><path class="cls-20" d="M29.92,285.46S16.48,271,21.71,259.77a.41.41,0,0,1,.76,0c1.06,2.9,4.79,11.95,10.24,12.81v13.78Z"/><path class="cls-21" d="M45.23,288a60.5,60.5,0,0,1,7.87-9.92c1.23-1.14,2.11-2.89,3.68-3.52C77.4,266.24,70,245.18,70,245.18a.76.76,0,0,0-1.34-.43l-1.58,1.85L41.36,278.43Z"/><path class="cls-22" d="M36.73,234s5.25-9.51,9.2-9.27,9.66,11.82,9.12,15.61L54.74,246,42.91,261.43Z"/><path class="cls-20" d="M34.46,262.51S21,252.3,16.62,241.64a81.28,81.28,0,0,1-4.93-17.78,2,2,0,0,1,1.9-2.33c4-.23,13.22.82,23.13,12.68,0,0,8.19,10.32,9.81,18,0,0,6.83-12.63,16.18-18.71a1.23,1.23,0,0,1,1.9,1,34,34,0,0,0,2.8,10.1s5.1,12.53-14.15,23.54c0,0-7.89,6.15-8.93,12.41Z"/><path class="cls-22" d="M32,323.77l.93-6.61s-16.93-6.38-24-20.41c0,0,5.74,2.73,10,2.84s11.13,4,14,7.48-5.32-11-12.39-15.61C9,283.92,7.84,269.08,7.84,269.08s12.52,2.24,15.61,6.57l3.1,4.33,3.55,5.56,8.43,10.88S52,275.49,63,269.08c0,0,2.62,13.14-11.68,28.68,0,0-5.64,7.34-7.11,8.35,0,0,9.36-3.87,22.88,3.71,0,0-5.56,6.49-16.85,4.79-4.56-.69-7.33-.42-9,.15a3.78,3.78,0,0,0-2.52,3.76l.25,5.25Z"/><path class="cls-22" d="M36.26,311.79s-8.35-21.92-6.26-35c1.54-9.67,4.79-15.74,6.38-18.26a.67.67,0,0,1,1.22.22A26,26,0,0,0,41,267.49c2.32,3.31,5.83,23.15,3.37,27.31a11.38,11.38,0,0,0-1,1.9A103.6,103.6,0,0,1,36.26,311.79Z"/><path class="cls-23" d="M51.44,376.34H19.07a2.27,2.27,0,0,1-2.26-2.06l-4.63-49a2.27,2.27,0,0,1,2.26-2.48H55a3.28,3.28,0,0,1,3.27,3.59L53.7,374.28A2.27,2.27,0,0,1,51.44,376.34Z"/><path class="cls-24" d="M51.44,376.34a2.27,2.27,0,0,0,2.26-2.06l4.52-47.92A3.28,3.28,0,0,0,55,322.77H48s13,41.74-4.72,53.57Z"/><path class="cls-20" d="M44.5,234.06a30,30,0,0,1,1.92,6.19,38.91,38.91,0,0,1,.78,6.46,32.39,32.39,0,0,1-.48,6.52,20.17,20.17,0,0,1-2.22,6.11,47.49,47.49,0,0,0,1-6.28c.14-2.1.2-4.2.14-6.3s-.23-4.21-.43-6.33S44.77,236.21,44.5,234.06Z"/><path class="cls-20" d="M49,237.19a5.79,5.79,0,0,1,.89,2.39,7.06,7.06,0,0,1-.08,2.59,5.69,5.69,0,0,1-1.19,2.38,4,4,0,0,1-2.24,1.32,12.4,12.4,0,0,0,1.24-2,12.08,12.08,0,0,0,.7-2.05C48.66,240.39,48.78,238.89,49,237.19Z"/><path class="cls-22" d="M23.05,233.37a70.12,70.12,0,0,1,8.07,7.82A77.72,77.72,0,0,1,38,250.12a52.25,52.25,0,0,1,5.23,10,28.09,28.09,0,0,1,2.1,11.05,38,38,0,0,0-3.21-10.59c-.76-1.67-1.59-3.32-2.52-4.92s-1.86-3.19-2.89-4.73c-2-3.1-4.23-6.07-6.51-9S25.52,236.18,23.05,233.37Z"/><path class="cls-22" d="M30,233.73a7.43,7.43,0,0,1,1.43,1.94,9.79,9.79,0,0,1,.85,2.22,7.76,7.76,0,0,1,.26,2.41,3.83,3.83,0,0,1-.8,2.34,13.54,13.54,0,0,0-.4-2.24l-.55-2.13A23.48,23.48,0,0,1,30,233.73Z"/><path class="cls-22" d="M37.45,241.92a7.61,7.61,0,0,1,1,2.17,9.76,9.76,0,0,1,.43,2.34,8.28,8.28,0,0,1-.19,2.42A3.87,3.87,0,0,1,37.51,251a12.32,12.32,0,0,0,0-2.27l-.14-2.19A23.06,23.06,0,0,1,37.45,241.92Z"/><path class="cls-22" d="M25.31,244.5a8.6,8.6,0,0,1,2.55-.41,11.43,11.43,0,0,1,2.54.22,9.3,9.3,0,0,1,2.46.84,4.14,4.14,0,0,1,1.92,1.8,12,12,0,0,0-2.34-.67l-2.34-.46c-.79-.16-1.58-.33-2.38-.53A17.82,17.82,0,0,1,25.31,244.5Z"/><path class="cls-22" d="M31.21,253.79a8.59,8.59,0,0,1,2.54-.41,11.52,11.52,0,0,1,2.55.22,8.78,8.78,0,0,1,2.45.84,4.11,4.11,0,0,1,1.93,1.8,12.1,12.1,0,0,0-2.35-.67L36,255.11c-.78-.16-1.57-.33-2.37-.54A16.46,16.46,0,0,1,31.21,253.79Z"/><path class="cls-22" d="M57.72,249.12a19.2,19.2,0,0,0-2.85,3.13,38.66,38.66,0,0,0-2.33,3.5,53.74,53.74,0,0,0-3.7,7.54c-1.11,2.58-2,5.27-2.89,7.94-.38,1.36-.82,2.71-1.23,4.07S44,278,43.51,279.4c.11-1.42.3-2.84.47-4.27s.52-2.81.82-4.22.71-2.78,1.14-4.15.91-2.73,1.48-4.06,1.19-2.63,1.83-3.92l1.09-1.87c.36-.63.8-1.21,1.2-1.81s.87-1.16,1.31-1.73.95-1.1,1.46-1.61A14.05,14.05,0,0,1,57.72,249.12Z"/><path class="cls-22" d="M57,259.34a34.92,34.92,0,0,0-6.14,4.19,25.14,25.14,0,0,0-2.58,2.58c-.83.92-1.53,1.94-2.35,3a10.23,10.23,0,0,1,1.38-3.67,12.13,12.13,0,0,1,2.54-3,13,13,0,0,1,3.34-2.11A10,10,0,0,1,57,259.34Z"/><path class="cls-22" d="M48.67,254.12a4.66,4.66,0,0,1,1,1.71,6.6,6.6,0,0,1,.37,1.91,6.24,6.24,0,0,1-.24,2,4.06,4.06,0,0,1-1,1.73c-.11-.7-.14-1.29-.19-1.88s-.08-1.16-.1-1.75,0-1.17,0-1.77A13.27,13.27,0,0,1,48.67,254.12Z"/><path class="cls-22" d="M41,282.88c-.12,1.23-.28,2.41-.45,3.58L40.08,290c-.16,1.16-.31,2.32-.45,3.49s-.23,2.34-.43,3.57a12,12,0,0,1-.77-3.6,17.33,17.33,0,0,1,.13-3.67,18.1,18.1,0,0,1,.85-3.56A12.94,12.94,0,0,1,41,282.88Z"/><path class="cls-20" d="M16.64,279.4a27.63,27.63,0,0,1,8.13,6.3,41.45,41.45,0,0,1,6,8.48,50.05,50.05,0,0,1,2.1,4.75c.29.82.63,1.61.87,2.44s.48,1.66.71,2.49a21.84,21.84,0,0,1,.57,2.52l.47,2.54c.22,1.7.35,3.42.46,5.12-.45-1.66-.78-3.33-1.2-5L34,306.62l-.34-1.22c-.11-.4-.27-.8-.4-1.2-.29-.79-.57-1.59-.83-2.39s-.64-1.56-.95-2.34c-.59-1.58-1.39-3.06-2.11-4.57a53.72,53.72,0,0,0-5.51-8.42A40.08,40.08,0,0,0,16.64,279.4Z"/><path class="cls-20" d="M54.35,287a145.27,145.27,0,0,0-9.76,12.44l-1.12,1.62-1,1.66c-.37.55-.69,1.12-1,1.68s-.69,1.12-1,1.7c-1.31,2.28-2.4,4.66-3.53,7.09a33.32,33.32,0,0,1,2.46-7.63,46.39,46.39,0,0,1,4-7,54.21,54.21,0,0,1,5-6.24A42.6,42.6,0,0,1,54.35,287Z"/><path class="cls-20" d="M34.78,273a42.18,42.18,0,0,1,3.41,9.8c.18.84.39,1.69.52,2.55l.42,2.57c.19,1.73.36,3.46.42,5.2l.05,1.31,0,1.3c0,.87,0,1.74-.07,2.61-.17,1.73-.24,3.47-.58,5.18a46.62,46.62,0,0,1-2.72,10,101.3,101.3,0,0,0,1.53-10.16A73.77,73.77,0,0,0,38,293.14,78.88,78.88,0,0,0,37,283,81.69,81.69,0,0,0,34.78,273Z"/><path class="cls-20" d="M33,286.58a6.92,6.92,0,0,1,2.79,1.36,8.87,8.87,0,0,1,2.81,3.76,7.42,7.42,0,0,1,.4,1.54,6.62,6.62,0,0,1-.17,3.1c-.36-1-.59-1.91-1-2.78a16.1,16.1,0,0,0-1.27-2.48A21.57,21.57,0,0,0,35,288.8C34.34,288.06,33.69,287.34,33,286.58Z"/><path class="cls-20" d="M33,294.67a6.39,6.39,0,0,1,2.65,1.45,8.25,8.25,0,0,1,1.93,2.38,8.15,8.15,0,0,1,1,2.92,6.66,6.66,0,0,1-.24,3c-.34-1-.58-1.86-.92-2.72a19.86,19.86,0,0,0-1.14-2.47A27.11,27.11,0,0,0,33,294.67Z"/><path class="cls-20" d="M17.91,302.9a32.46,32.46,0,0,1,5.37,1.68A40.76,40.76,0,0,1,28.35,307c.81.48,1.61,1,2.39,1.52A23.82,23.82,0,0,1,33,310.33a13.12,13.12,0,0,1,1.92,2.15A5.9,5.9,0,0,1,36,315.11,7.7,7.7,0,0,0,34.32,313a19.13,19.13,0,0,0-2.11-1.7c-1.48-1-3-2-4.63-2.91C24.41,306.52,21.13,304.84,17.91,302.9Z"/><path class="cls-20" d="M56.56,310.25a38.89,38.89,0,0,0-5.59-.77,24.41,24.41,0,0,0-5.48.24l-1.33.26-1.29.4a8.53,8.53,0,0,0-1.27.49,8.55,8.55,0,0,0-1.22.59,20.75,20.75,0,0,0-4.46,3.35c.24-.41.49-.83.76-1.23a5.88,5.88,0,0,1,.88-1.17l1-1.07c.37-.32.78-.6,1.18-.9a13.18,13.18,0,0,1,5.48-2.23,17.31,17.31,0,0,1,5.88.08A16.55,16.55,0,0,1,56.56,310.25Z"/><path class="cls-20" d="M38.81,296.71a5.51,5.51,0,0,1-.13-2.35,7,7,0,0,1,.73-2.26A5.87,5.87,0,0,1,41,290.24a3.78,3.78,0,0,1,2.29-.75,13.8,13.8,0,0,0-1.45,1.62,18.73,18.73,0,0,0-1.06,1.71C40.12,294,39.59,295.32,38.81,296.71Z"/><path class="cls-25" d="M454.29,85.73A21.76,21.76,0,0,0,414.19,74a14.74,14.74,0,0,0-23.49,9.58,12.63,12.63,0,1,0-5.64,23.92h48.85v0A21.75,21.75,0,0,0,454.29,85.73Z"/><path class="cls-25" d="M14.58,28.05A28,28,0,0,1,66.25,12.93,19,19,0,0,1,96.51,25.28a16,16,0,0,1,7.25-1.73,16.27,16.27,0,1,1,0,32.54H40.84V56A28,28,0,0,1,14.58,28.05Z"/></g></g></svg>