<svg xmlns="http://www.w3.org/2000/svg" viewBox="0 0 527.26 443.9"><defs><style>.cls-1{fill:#ececec;}.cls-2{fill:#5dba3e;}.cls-3{fill:#4c9b2f;}.cls-4,.cls-8{fill:none;stroke-miterlimit:10;}.cls-4{stroke:#cfcfcf;stroke-width:3px;}.cls-5{fill:#fff;}.cls-6{fill:#476063;}.cls-7{fill:#22393d;}.cls-8{stroke:#c0d4d8;stroke-linecap:round;stroke-width:2px;}.cls-9{fill:#f05a28;}.cls-10{fill:#f24646;}.cls-11{fill:#c0d4d8;}.cls-12{fill:#121e20;}.cls-13{fill:#e29332;}.cls-14{fill:#faaf41;}.cls-15{fill:#121e21;}.cls-16{fill:#e0a4ab;}.cls-17{fill:#ffcdc2;}.cls-18{fill:#ea7185;}.cls-19{fill:#414042;}.cls-20{fill:#66063f;}.cls-21{opacity:0.39;}.cls-22{fill:#9e0853;}.cls-23{fill:#82084b;}.cls-24{fill:#424143;}.cls-25{fill:#f9bd48;}</style></defs><g id="Layer_2" data-name="Layer 2"><g id="Layer_1-2" data-name="Layer 1"><path class="cls-1" d="M359.45,40.42H497.17s-1.94-19.5-18.5-15S464.24-2.91,440.2,8.17c-18.75,8.63-32.67-23.75-46.78,2C380.66,33.38,368,13.67,359.45,40.42Z"/><path class="cls-1" d="M124.33,47.59H33.84S35.11,34.38,46,37.43s9.49-19.19,25.28-11.69C83.59,31.59,92.73,9.65,102,27.07,110.39,42.83,118.7,29.47,124.33,47.59Z"/><path class="cls-2" d="M148.57,441.49c-23.87,3.8-62.15-20-59-30.72,5-17.26,26.78,2.93,31.8-5.35,5.44-9-44.47-23-37.73-50.69,1.78-7.32,13.36-11.81,19.55-5.13,6.44,6.94,11.79,18.4,17.25,14.49,9.53-6.85-29.79-53.89-4.82-61.2,14.15-4.14,21,8.14,23.9,23.24,2,10.43,1.37,29.24,6.27,30,7.53,1.17,14.26-41,28.07-26.82,17,17.49-24.42,58.4-17,67.27,4.61,5.52,30.2-29.83,36.63-18.55C201.89,392.84,173.38,437.54,148.57,441.49Z"/><path class="cls-3" d="M173.08,401.6c-3.13,2.66-6.2,5.36-9.27,8.07s-6.11,5.45-9.11,8.24q-3.8,3.51-7.57,7.07c-.59-5.51-1.28-11-2-16.49s-1.63-10.95-2.49-16.41l-.33-1.92c2.52-3.68,4.87-7.44,7.22-11.2s4.67-7.79,6.83-11.78,4.23-8.05,6.06-12.22A54.9,54.9,0,0,0,166.58,342,72.59,72.59,0,0,1,161,354.29c-1.07,2-2.17,3.94-3.32,5.88s-2.27,3.88-3.45,5.8q-3.51,5.77-7.18,11.46c-1.8,2.85-3.67,5.68-5.53,8.49-.61-3.4-1.23-6.79-1.89-10.18-.53-2.72-1.1-5.42-1.69-8.13s-1.13-5.42-1.8-8.11l-2-8.07c-.67-2.69-1.44-5.35-2.18-8a205.62,205.62,0,0,0-11.18-31.27c3.55,10.49,6.32,21.15,8.92,31.86l1.89,8,1.75,8.08c.6,2.69,1.13,5.4,1.7,8.09s1.12,5.4,1.62,8.11q1.16,5.67,2.21,11.37l-.52-.17c-1-.34-1.95-.72-2.92-1.1-1.94-.78-3.88-1.59-5.8-2.43q-5.77-2.53-11.4-5.41a125.56,125.56,0,0,1-10.94-6.25,53,53,0,0,1-5.09-3.71A19.44,19.44,0,0,1,98,364a17.92,17.92,0,0,0,3.71,5.2,47.4,47.4,0,0,0,4.81,4.26,98.23,98.23,0,0,0,10.67,7.09c3.68,2.16,7.48,4.12,11.33,5.95,1.93.92,3.88,1.8,5.87,2.6,1,.41,2,.8,3,1.17.51.19,1,.37,1.58.53l.54.15q1.66,8.94,3.27,17.9l3,16.8c-2.49-.59-5-1.17-7.48-1.7-2.93-.66-5.88-1.27-8.82-1.87s-5.9-1.16-8.86-1.7-5.93-1-8.92-1.47c2.86,1,5.73,1.88,8.61,2.75s5.76,1.73,8.66,2.53,5.79,1.62,8.7,2.37,5.77,1.51,8.66,2.21l2.25,12.72c-.27-4.29-.65-8.56-1.08-12.83l.25-.22c3-2.77,6-5.59,8.95-8.41s5.88-5.69,8.82-8.54,5.8-5.78,8.65-8.73,5.69-5.91,8.42-9C179.35,396.32,176.21,399,173.08,401.6Z"/><path class="cls-2" d="M390.3,440.49c23.87,3.8,62.16-20,59.05-30.72-5-17.26-26.78,2.93-31.8-5.35-5.45-9,44.47-23,37.73-50.69-1.79-7.32-13.36-11.81-19.56-5.13-6.43,6.94-11.79,18.4-17.24,14.49-9.54-6.85,29.79-53.89,4.82-61.2-14.16-4.14-21,8.14-23.9,23.24-2,10.43-1.38,29.24-6.27,30-7.54,1.17-14.27-41-28.07-26.82-17,17.49,24.42,58.4,17,67.27-4.61,5.52-30.2-29.83-36.63-18.55C337,391.84,365.5,436.54,390.3,440.49Z"/><path class="cls-3" d="M365.8,400.6c3.12,2.66,6.2,5.36,9.27,8.07s6.11,5.45,9.1,8.24q3.81,3.51,7.57,7.07.9-8.26,2-16.49c.72-5.49,1.62-10.95,2.48-16.41.11-.64.23-1.28.34-1.92-2.53-3.68-4.87-7.44-7.23-11.2s-4.66-7.79-6.83-11.78-4.22-8.05-6.05-12.22a54.93,54.93,0,0,1-4.2-12.95,72.64,72.64,0,0,0,5.58,12.28q1.59,3,3.32,5.88t3.45,5.8q3.51,5.77,7.17,11.46c1.8,2.85,3.67,5.68,5.54,8.49q.9-5.1,1.89-10.18c.52-2.72,1.09-5.42,1.69-8.13s1.13-5.42,1.79-8.11l2-8.07c.66-2.69,1.43-5.35,2.17-8a207.8,207.8,0,0,1,11.18-31.27c-3.54,10.49-6.32,21.15-8.92,31.86l-1.88,8-1.76,8.08c-.6,2.69-1.13,5.4-1.7,8.09s-1.11,5.4-1.62,8.11Q401,381,400,386.69l.53-.17c1-.34,1.94-.72,2.92-1.1,1.93-.78,3.87-1.59,5.8-2.43q5.78-2.53,11.4-5.41c3.73-1.94,7.42-3.95,10.94-6.25a54.09,54.09,0,0,0,5.08-3.71,19.48,19.48,0,0,0,4.25-4.62,18.15,18.15,0,0,1-3.72,5.2,46.34,46.34,0,0,1-4.81,4.26,97.14,97.14,0,0,1-10.66,7.09c-3.69,2.16-7.48,4.12-11.34,5.95-1.93.92-3.87,1.8-5.86,2.6-1,.41-2,.8-3,1.17-.52.19-1,.37-1.58.53l-.54.15q-1.67,8.94-3.27,17.9l-3,16.8c2.49-.59,5-1.17,7.48-1.7,2.93-.66,5.87-1.27,8.82-1.87s5.9-1.16,8.86-1.7,5.93-1,8.91-1.47c-2.85,1-5.72,1.88-8.6,2.75s-5.77,1.73-8.66,2.53-5.79,1.62-8.7,2.37-5.77,1.51-8.67,2.21l-2.25,12.72c.28-4.29.66-8.56,1.08-12.83l-.24-.22c-3-2.77-6-5.59-8.95-8.41s-5.89-5.69-8.83-8.54-5.8-5.78-8.65-8.73-5.68-5.91-8.42-9C359.53,395.32,362.67,398,365.8,400.6Z"/><line class="cls-4" y1="442.4" x2="527.26" y2="442.4"/><rect class="cls-5" x="154.92" y="10.92" width="219.38" height="423.29" rx="30.2"/><path class="cls-6" d="M344.1,440.21h-159a36.24,36.24,0,0,1-36.2-36.2V41.12a36.24,36.24,0,0,1,36.2-36.2h159a36.24,36.24,0,0,1,36.2,36.2V404A36.24,36.24,0,0,1,344.1,440.21Zm-159-423.29a24.23,24.23,0,0,0-24.2,24.2V404a24.23,24.23,0,0,0,24.2,24.2h159A24.23,24.23,0,0,0,368.3,404V41.12a24.23,24.23,0,0,0-24.2-24.2Z"/><path class="cls-7" d="M218.61,9.82h92a0,0,0,0,1,0,0V23.1A14.9,14.9,0,0,1,295.71,38h-62.2a14.9,14.9,0,0,1-14.9-14.9V9.82a0,0,0,0,1,0,0Z"/><line class="cls-8" x1="186.34" y1="56.49" x2="206.29" y2="56.49"/><line class="cls-8" x1="186.34" y1="63.04" x2="206.29" y2="63.04"/><line class="cls-8" x1="186.34" y1="69.58" x2="206.29" y2="69.58"/><rect class="cls-9" x="182.57" y="375.24" width="162.12" height="25.74" rx="12.87"/><path class="cls-5" d="M246.44,384.39a3.89,3.89,0,0,1,3.8,2.46h-1.61a2.27,2.27,0,0,0-2.19-1.29,3,3,0,0,0,0,6,2.29,2.29,0,0,0,2.19-1.29h1.61a3.88,3.88,0,0,1-3.8,2.45,4.18,4.18,0,0,1,0-8.35Z"/><path class="cls-5" d="M257,389.09h-3.85v3.58H251.8v-8.18h1.34V388H257v-3.51h1.34v8.18H257Z"/><path class="cls-5" d="M264.61,385.58h-3.18V388h2.83v1.1h-2.83v2.51h3.18v1.09h-4.52v-8.19h4.52Z"/><path class="cls-5" d="M270,384.39a3.89,3.89,0,0,1,3.8,2.46h-1.61a2.27,2.27,0,0,0-2.19-1.29,3,3,0,0,0,0,6,2.29,2.29,0,0,0,2.19-1.29h1.61a3.88,3.88,0,0,1-3.8,2.45,4.18,4.18,0,0,1,0-8.35Z"/><path class="cls-5" d="M276.69,389v3.66h-1.35v-8.18h1.35v3.73l3.17-3.73h1.68l-3.55,4.1,3.61,4.08h-1.75Z"/><path class="cls-5" d="M286.52,392.75a4.18,4.18,0,1,1,4.17-4.19A4.09,4.09,0,0,1,286.52,392.75Zm0-1.16a3,3,0,1,0-2.8-3A2.78,2.78,0,0,0,286.52,391.59Z"/><path class="cls-5" d="M292,384.49h1.35v5.21a1.85,1.85,0,1,0,3.7,0v-5.21h1.34v5.19a3.2,3.2,0,0,1-6.39,0Z"/><path class="cls-5" d="M299.7,384.49h5.7v1.1h-2.17v7.08h-1.34v-7.08H299.7Z"/><path class="cls-5" d="M230.19,390.54H222.5a.51.51,0,0,1-.48-.38l-1.76-7.05a.54.54,0,0,1,.09-.43.51.51,0,0,1,.4-.19H232a.48.48,0,0,1,.39.19.51.51,0,0,1,.1.43l-1.76,7.05A.51.51,0,0,1,230.19,390.54Zm-7.29-1h6.9l1.51-6.05h-9.92Z"/><path class="cls-5" d="M235.8,383.49h-4.67a.5.5,0,0,1,0-1h4.67a.5.5,0,0,1,0,1Z"/><circle class="cls-5" cx="223.9" cy="394.19" r="1.11"/><circle class="cls-5" cx="228.96" cy="394.19" r="1.11"/><path class="cls-10" d="M335,267.32c-3.64-3.64.45-7.73,4.09-4.08,3.75-3.76,7.84.33,4.09,4.08l-4.09,4.09Z"/><rect class="cls-11" x="182.55" y="86.07" width="162.15" height="162.15" rx="8.6"/><path class="cls-5" d="M199.35,212a1.5,1.5,0,0,1-.75-2.8l80.31-46.07a21.92,21.92,0,0,1,24.38,1.67l25.54,19.75a1.5,1.5,0,1,1-1.83,2.37l-25.54-19.74a18.9,18.9,0,0,0-21-1.45l-80.32,46.07A1.52,1.52,0,0,1,199.35,212Z"/><path class="cls-5" d="M228.32,159.1a16.28,16.28,0,1,1,16.28-16.27A16.29,16.29,0,0,1,228.32,159.1Zm0-29.55a13.28,13.28,0,1,0,13.28,13.28A13.3,13.3,0,0,0,228.32,129.55Z"/><rect class="cls-11" x="184.6" y="315.29" width="157.65" height="2"/><rect class="cls-11" x="184.6" y="329.01" width="157.65" height="2"/><rect class="cls-11" x="184.6" y="342.73" width="157.65" height="2"/><rect class="cls-11" x="184.6" y="356.46" width="132.67" height="2"/><path d="M189.51,274.51c-1.44-.13-2.47-.91-2.47-2.24h1.43a1.18,1.18,0,0,0,1,1.14v-2.59c-1.18-.29-2.47-.62-2.47-2.28a2.43,2.43,0,0,1,2.47-2.36v-1h.76v.95a2.33,2.33,0,0,1,2.38,2.19h-1.44a1.2,1.2,0,0,0-.94-1.05v2.55c1.18.28,2.46.6,2.46,2.25a2.48,2.48,0,0,1-2.46,2.39v1h-.76Zm0-4.85v-2.38a1.14,1.14,0,0,0-1.11,1.19C188.4,269.15,188.87,269.46,189.51,269.66Zm.76,1.36v2.39a1.22,1.22,0,0,0,1.11-1.23C191.38,271.51,190.91,271.22,190.27,271Z"/><path d="M198.63,267.09h-1.09v-1.22H200v8.57h-1.36Z"/><path d="M205.91,272.66h-4.25v-1l4-5.67h1.62v5.52h1.1v1.17h-1.1v1.78h-1.32Zm.06-1.17v-4.15l-2.77,4.15Z"/><path d="M212.47,265.71c2.4,0,3.06,1.89,3.06,4.33s-.66,4.38-3.06,4.38-3.05-1.88-3.05-4.38S210.07,265.71,212.47,265.71Zm0,1.23c-1.56,0-1.74,1.5-1.74,3.1s.18,3.16,1.74,3.16,1.75-1.47,1.75-3.16S214,266.94,212.47,266.94Z"/><path d="M220,265.71c2.4,0,3.06,1.89,3.06,4.33s-.66,4.38-3.06,4.38-3.06-1.88-3.06-4.38S217.6,265.71,220,265.71Zm0,1.23c-1.56,0-1.74,1.5-1.74,3.1s.18,3.16,1.74,3.16,1.74-1.47,1.74-3.16S221.57,266.94,220,266.94Z"/><path class="cls-12" d="M32.06,392.33s-.48,12.48-1.82,19-3.65,29.37,9.6,29.37,12.47-18.43,10.75-24.19S54,392.33,54,392.33Z"/><path class="cls-12" d="M122.48,399.82s2.88,5.18-4.32,16.7-6.06,26.21,4.89,26.21,18.43-10.66,19.3-23.33,1.73-27.07,1.73-27.07Z"/><path class="cls-7" d="M73.66,227.86s-9,63.46-11.89,80.16-20.16,19.75-29.71,84.31c0,0,9.5,7.78,21.31,3.75,0,0,18.43-44.64,26.49-62.49s35.87-75.21,35.87-75.21,4.16,39.5,6.75,55.63,5.18,43.19,0,85.81a21.8,21.8,0,0,0,21,0s3.74-17.85,6.62-29.95S165,255.66,147.48,209.32Z"/><path class="cls-12" d="M119.33,246.43c-1.84,2.08-3.69,2.08-5.53,0V232h5.53Z"/><path class="cls-12" d="M70.6,249.25s10.72-5.38,10.72-19.65l-8.4,1.14Z"/><path class="cls-12" d="M154.12,240s-15.07-.6-15.07-13.85l12.16-3.57Z"/><path class="cls-12" d="M112.07,259.1a13.71,13.71,0,0,0,2.24-.27,11.67,11.67,0,0,0,2.12-.59,12.56,12.56,0,0,0,2-.94c.65-.35,1.26-.79,1.91-1.22a7,7,0,0,1-1.6,1.69,7.28,7.28,0,0,1-2.06,1.14,7.61,7.61,0,0,1-2.3.48A5.82,5.82,0,0,1,112.07,259.1Z"/><path class="cls-13" d="M74.65,224l-1.73,6.72s50.65,18.12,78.29-8.18a73.15,73.15,0,0,0-3.73-13.24Z"/><path class="cls-14" d="M48.84,134s-5.69,9.27-9.87,17.34c-3.44,6.63-7.36,16.8,0,21.5,11.93,7.62,33.51-20.57,40.23-26.71,0,0-.91,12.82,6.17,21.79,0,0-1.89,28.23-10.72,56.45,0,0,43.61,16.19,75.09-8.19,0,0-11.18-31.95-11.69-47.69,0,0,9.85-14,5-27.64,0,0,22.93,21.62,29.31,25.65s16.17,7.68,20.4.2-9-27.76-13.08-32.7-24-20.1-29-25.66-24.38-13.44-35.13-11.14-28.41,5.19-33.78,10.18-25.53,28.41-28,29S48.84,134,48.84,134Z"/><path class="cls-13" d="M90.67,103.57s10,27.47,21.75,38c0,0,18.65-15.47,23-40.09L127.1,99.3l-14.68,32.42L96.22,96.85Z"/><path class="cls-15" d="M131.22,105.15l-9.79-4s-6.64-13.44,1.42-16.63,11.61-7.11,11.33,0S131.22,105.15,131.22,105.15Z"/><path class="cls-16" d="M97.56,100.74l7.14,14.75a13.57,13.57,0,0,0,15.26-.6l6.14-12s-3.92-1-3.92-2.67.16-9.62,3.28-14c1.47-2.06-27.9.65-27.9.65Z"/><path class="cls-17" d="M100.73,88.21s6.57,7.49,12.33,7.49S134.18,82,134.18,82,134.18,45.21,123,45s-16.51,6.36-23.23,11.43-10.6,11.16-9.64,16.92S100.73,88.21,100.73,88.21Z"/><path class="cls-15" d="M98.13,63.3s11.09-5.75,11.81-11.95c0,0,14.28,9.06,17.56,36.48,2.52,21,0,36.19-4.83,42.39,0,0,9.44-1.73,14.38-23.76l4.56,2.05s14.1-75.24-29.78-69.12C93.45,37,89.82,61,88.91,73.87c-.74,10.65-3.54,35.29-3.54,35.29s18.14-6.83,18.38-10.44c0-.33-.49-8-.49-8a18.52,18.52,0,0,1-6-12.07s-5-4.1-3.63-9.16c1.24-4.63,4.93,1.6,4.93,1.6Z"/><path class="cls-17" d="M51.16,133.13s16.24-18.24,17.57-21.74c1.26-3.31,6.15-13.76,5.77-18.76-.41-5.36.29-10.1,2.75-8.55,2.09,1.32.62,10.38,3.43,10.76,2.5.33,5.56-1.62,7.58-2.27,1.65-.54,2.94.07,3,1.51,0,.71-.32,1.49-1.53,2.2,0,0,3.46,2,.43,4.89,0,0,3.23,2.35.32,4.85,0,0,2.52,3.36-4.88,5.81S75.93,121.47,73.19,129,67,144.08,67,144.08Z"/><path class="cls-16" d="M89.72,96.41a6.94,6.94,0,0,1-1.59,1.07,10.62,10.62,0,0,1-1.7.65,11,11,0,0,1-1.8.34,6.52,6.52,0,0,1-1.91-.08,6.39,6.39,0,0,1,1.58-1.07A10.17,10.17,0,0,1,86,96.67a9.86,9.86,0,0,1,1.8-.34A6.53,6.53,0,0,1,89.72,96.41Z"/><path class="cls-16" d="M90.13,101.05a4.23,4.23,0,0,1-1.2,1,6.26,6.26,0,0,1-1.32.55,6.1,6.1,0,0,1-1.42.23,4.35,4.35,0,0,1-1.52-.19,4.1,4.1,0,0,1,1.2-1,5.56,5.56,0,0,1,1.32-.54,6.11,6.11,0,0,1,1.41-.23A4.6,4.6,0,0,1,90.13,101.05Z"/><path class="cls-16" d="M90.52,106.06a3.92,3.92,0,0,1-1.28.69,5.51,5.51,0,0,1-1.32.26,5,5,0,0,1-1.33-.06,4,4,0,0,1-1.37-.49,3.78,3.78,0,0,1,1.28-.7,5.43,5.43,0,0,1,1.31-.26,6,6,0,0,1,1.34.06A3.94,3.94,0,0,1,90.52,106.06Z"/><path class="cls-13" d="M65.16,148.77a36.79,36.79,0,0,1-1.95,7.5,39.71,39.71,0,0,1-3.37,7,26.69,26.69,0,0,1-5,6.05A15.38,15.38,0,0,1,48,173a20.77,20.77,0,0,0,6.07-4.47,27.72,27.72,0,0,0,2.41-2.87,32.82,32.82,0,0,0,2.11-3.12,61.93,61.93,0,0,0,3.56-6.69C63.24,153.53,64.23,151.18,65.16,148.77Z"/><path class="cls-13" d="M165,146.12q1.33,3.4,2.8,6.7c1,2.19,2,4.35,3.22,6.42.58,1,1.21,2.06,1.88,3a32.51,32.51,0,0,0,2.12,2.86,22.92,22.92,0,0,0,5.31,4.78,15.84,15.84,0,0,1-6.15-4,28.16,28.16,0,0,1-4.41-6,40.86,40.86,0,0,1-3-6.72A36.21,36.21,0,0,1,165,146.12Z"/><path class="cls-16" d="M112.22,72.6s-1.1,4.55-1.84,5.06,3,1.6,3,1.6S111.49,77.51,112.22,72.6Z"/><path class="cls-18" d="M107,83.41c1.92.27,8.17,1,11.53.24a.56.56,0,0,1,.67.51c.09,1.4-.34,5.21-6.24,5.23s-6.59-4-6.58-5.45A.54.54,0,0,1,107,83.41Z"/><path class="cls-15" d="M107.89,68.24a5.43,5.43,0,0,0-3-1.12,9.68,9.68,0,0,0-1.59.07c-.28,0-.58.07-.89.1a7,7,0,0,1-1,.09,5.37,5.37,0,0,1,.66-.76,6.77,6.77,0,0,1,.83-.57,4.11,4.11,0,0,1,2-.45,3.3,3.3,0,0,1,2,.81A2.5,2.5,0,0,1,107.89,68.24Z"/><path class="cls-15" d="M125.27,67.44a8,8,0,0,0-3.66-.33,11,11,0,0,0-1.71.51L119,68a6.38,6.38,0,0,1-1,.39,6.55,6.55,0,0,1,.53-1,6.37,6.37,0,0,1,.76-.8,4.72,4.72,0,0,1,2.07-1A3.64,3.64,0,0,1,125.27,67.44Z"/><path class="cls-15" d="M124.82,70.91a12.17,12.17,0,0,0-3.25,0,7.54,7.54,0,0,0-1.48.39c-.5.17-1,.43-1.56.67a3.32,3.32,0,0,1,1.13-1.45,3.66,3.66,0,0,1,1.74-.74,4,4,0,0,1,1.88.15A3.35,3.35,0,0,1,124.82,70.91Z"/><circle class="cls-19" cx="104.99" cy="70.9" r="1.42"/><path class="cls-15" d="M133.44,111.5s-.54,14-5.78,20.5c0,0,13.27-5.15,15.45-28.3l-8.59-.6Z"/><polygon class="cls-13" points="47.03 137.16 50.3 130.83 69.49 144.08 66.42 149.58 47.03 137.16"/><path class="cls-17" d="M179.09,131.42s-16.24-18.24-17.57-21.74c-1.26-3.32-6.14-13.76-5.77-18.76.41-5.36-.29-10.1-2.75-8.55-2.09,1.32-.62,10.38-3.43,10.75-2.5.34-5.56-1.61-7.58-2.26-1.65-.54-2.94.07-3,1.51,0,.71.32,1.49,1.53,2.19,0,0-3.45,2-.43,4.9,0,0-3.23,2.35-.32,4.84,0,0-2.51,3.37,4.88,5.81s9.7,9.65,12.43,17.14,6.19,15.12,6.19,15.12Z"/><path class="cls-16" d="M140.53,94.7a6.58,6.58,0,0,0,1.59,1.06,10.22,10.22,0,0,0,1.71.66,10.6,10.6,0,0,0,1.8.34,6.53,6.53,0,0,0,1.91-.08A6.63,6.63,0,0,0,146,95.61a8.85,8.85,0,0,0-1.71-.65,9.76,9.76,0,0,0-1.79-.34A6.59,6.59,0,0,0,140.53,94.7Z"/><path class="cls-16" d="M140.12,99.34a4.26,4.26,0,0,0,1.21,1,5.85,5.85,0,0,0,1.32.55,5.94,5.94,0,0,0,1.41.23,4.37,4.37,0,0,0,1.53-.19,4.23,4.23,0,0,0-1.2-1,5.63,5.63,0,0,0-1.33-.54,5.94,5.94,0,0,0-1.41-.23A4.36,4.36,0,0,0,140.12,99.34Z"/><path class="cls-16" d="M139.74,104.35A3.92,3.92,0,0,0,141,105a5.43,5.43,0,0,0,1.31.26,5,5,0,0,0,1.34-.06,3.94,3.94,0,0,0,1.37-.5,3.92,3.92,0,0,0-1.28-.69,5.06,5.06,0,0,0-1.32-.26,5.42,5.42,0,0,0-1.33.06A3.87,3.87,0,0,0,139.74,104.35Z"/><polygon class="cls-13" points="179.43 129.1 161.55 141.65 164.32 147.72 183.14 134.67 179.43 129.1"/><polygon class="cls-20" points="407.98 108.84 401.57 92.54 438.23 95.19 429.89 108.25 407.98 108.84"/><path class="cls-12" d="M380.18,409s.25,11-3.53,16.39-6.18,17.33,8.34,17.33,17.84-7.27,16.78-16.86S403,405.66,403,405.66Z"/><path class="cls-7" d="M377.45,402.15c5,.64,17.34,1.71,28.37-1.44a2,2,0,0,1,2.55,2l-.3,6.43a2.15,2.15,0,0,1-2,2l-29.22,1.72a2,2,0,0,1-2.08-2.05l.3-6.63A2.15,2.15,0,0,1,377.45,402.15Z"/><path class="cls-7" d="M428.39,404.41c4.67.64,15.68,1.62,25.61-1.38a2,2,0,0,1,2.59,1.94l-.28,6.37a2.18,2.18,0,0,1-2,2.05l-26.52,1.69a2,2,0,0,1-2.09-2.05l.3-6.59A2.16,2.16,0,0,1,428.39,404.41Z"/><g class="cls-21"><path class="cls-12" d="M373,240.42s5.56,49.92,5.15,89.87-.55,74-.55,74,17.69,4.19,28-1.95c0,0,2-50.57,3-67.05s3.16-42.75,11.53-65.38c0,0,5.64,50,8.11,57.28s-3.54,65.92-.76,78.5c0,0,17.11,4.75,25.71,0,0,0,2.51-67.89,3.61-79.9s2.55-81,2.59-94.43S373,240.42,373,240.42Z"/></g><path class="cls-7" d="M373,238.75s5.57,49.91,5.16,89.86-.56,74-.56,74,17.7,4.19,28-2c0,0,3.83-46.17,4.86-62.65s1.34-47.14,9.71-69.77A1316.66,1316.66,0,0,1,427.58,404s17.11,4.75,25.7,0c0,0,2.51-67.88,3.62-79.9s2.54-81,2.59-94.43S373,238.75,373,238.75Z"/><path class="cls-12" d="M404.78,104.41l-7.12,94.29,13.13,38h25.7V110.35s-8.83-9.07-17.84-8.31A65.3,65.3,0,0,0,404.78,104.41Z"/><polygon class="cls-12" points="422.97 249.44 417.6 249.44 418.24 235.47 423.6 235.47 422.97 249.44"/><path class="cls-12" d="M374.75,260.66s15.06-3.64,15.68-17.48l-17.29-1.08Z"/><path class="cls-12" d="M459.27,254.21s-14.6-.58-14-13.43l14.1-4.08Z"/><path class="cls-12" d="M415.35,267.91a15.86,15.86,0,0,0,2.83-.72A15.7,15.7,0,0,0,420.8,266a17.17,17.17,0,0,0,2.39-1.6c.76-.59,1.46-1.27,2.18-1.95a14.12,14.12,0,0,1-.82,1.25,9.56,9.56,0,0,1-1,1.12,10.75,10.75,0,0,1-5.23,2.88A8.1,8.1,0,0,1,415.35,267.91Z"/><path class="cls-16" d="M406.46,78s1.48,13.74-1.68,21.09c0,0,6.57,17.18,14.81,17.18s12.92-15.88,12.92-15.88a42.71,42.71,0,0,1-1.46-14.85C431.6,76.75,406.46,78,406.46,78Z"/><path class="cls-22" d="M397.52,97.12s-2.28,4.92-13.64,3.43-35.95,1.3-35.95,1.3-26.58,18.7-29.8,23.28c-4.72,6.72-3,13.23,8.75,18.44s35.21-5.4,46.38-1.68c3.05,31.05.73,63.93-4.47,97.79,0,0,23.7,12.14,42,5.77l2.7-129.17Z"/><path class="cls-17" d="M404.64,74.94s3.5,17.74,21.1,18.71,11.45-34.22,11.45-34.22S414.56,33,405.48,43s-12.29,27.24-8.24,31S404.64,74.94,404.64,74.94Z"/><path class="cls-15" d="M403.11,65.86a10.24,10.24,0,0,0,6.28,8.66s-5.16-11.18,2.24-27.24c0,0-1.23,10.54,7.45,9.56,0,0-.75-4.81-.33-6.63,0,0-.42,8.8,5.76,8.59,0,0-.87-4.54-.17-6.07,0,0,.19,9.1,6.85,7.84,0,0-2-4.07-1.4-6.31,0,0,.28,7.41,8.8,6.64,0,0,10.89-1-.84-16.28s-35.06-13.13-43.3,3.91-2.66,33.39,12.15,39.82c0,0,.58-5.39-.41-8.81l-1.55-4.6s-6-.11-6.14-5.31S403.11,65.86,403.11,65.86Z"/><path class="cls-22" d="M438.23,100.78s22.57.14,27.6,4.4,25.42-.77,25.42-.77,22.63,16.34,25.84,22.21,3.64,20.26-8.94,20.68-44.7-6.71-44.7-6.71c-3.93,27.47-1.73,59.61,3.5,94.06,0,0-17.51,12.48-35.76,11l-8.94-126.1Z"/><path class="cls-23" d="M395.52,99.38l6.05-6.84,9.22,11.73-3.07,12S399.66,101.9,395.52,99.38Z"/><path class="cls-23" d="M431.19,115.17l-4.61-9.36,11.65-10.62,3.85,7.26S431.88,110,431.19,115.17Z"/><path class="cls-17" d="M357,97.12s9.46-6.54,12.11-8.77,4.63-10,7.52-9.55c3.46.48.36,6-.47,8.94s-2.91,6.75,2,6.61a22,22,0,0,1,7.55.84s2.23,2.66,0,4.33c0,0,2.37,2.8-.56,6.29,0,0,1,4.61-1.82,4.89,0,0,2,5.3-5,4.47S362,113.49,358,116.28Z"/><path class="cls-23" d="M345.88,101.66l11-5.4s1.3,15.46,7.45,22.72l-10.24,4.1A24,24,0,0,1,345.88,101.66Z"/><path class="cls-17" d="M482.53,97.73S474.15,90,471.65,87.56,468.22,77,465.46,77c-3.49.06-1.64,6.38-1,9.42s2,7.6-2.85,7.14a22.14,22.14,0,0,0-7.58.35s-2.4,2.5-.28,4.32c0,0-2.55,2.64.15,6.31,0,0-1.28,4.54,1.49,5,0,0-2.29,5.17,4.73,4.79s16.28-.62,20.14,2.43Z"/><path class="cls-23" d="M493.29,103l-10.61-6.11s-2.31,15.34-8.92,22.19l10,4.76C489.06,118.79,492.1,111.71,493.29,103Z"/><path class="cls-24" d="M414.14,63.93a5,5,0,0,1,1.54-2,4.56,4.56,0,0,1,2.49-1,3.37,3.37,0,0,1,.71,0c.23.05.47.09.7.15s.43.19.64.3a3.12,3.12,0,0,1,.56.39,4.27,4.27,0,0,1,.87,1,5.39,5.39,0,0,1,.51,1.16c-.38-.21-.69-.46-1-.67a7.18,7.18,0,0,0-1-.52,3.63,3.63,0,0,0-1.91-.37,6.38,6.38,0,0,0-2,.52C415.58,63.18,414.89,63.54,414.14,63.93Z"/><path class="cls-24" d="M429.2,65.09a5,5,0,0,1,1.54-2,4.5,4.5,0,0,1,2.49-1,4.24,4.24,0,0,1,.71,0c.23,0,.47.08.7.15l.64.29a3.17,3.17,0,0,1,.56.4,4.23,4.23,0,0,1,.87,1,5.47,5.47,0,0,1,.51,1.17c-.38-.21-.69-.47-1-.67a6.64,6.64,0,0,0-1-.53,3.63,3.63,0,0,0-1.91-.37,6.15,6.15,0,0,0-2,.53C430.64,64.33,430,64.7,429.2,65.09Z"/><path class="cls-16" d="M427.92,70.42l1.37,4.5-2.68,1S428.72,75.24,427.92,70.42Z"/><ellipse class="cls-24" cx="418.15" cy="67.61" rx="1.5" ry="1.62"/><ellipse class="cls-24" cx="432.51" cy="67.61" rx="1.5" ry="1.62"/><path class="cls-18" d="M420.27,79.84a26.28,26.28,0,0,0,11.48.56.86.86,0,0,1,1,.87c0,2.44-.22,8-6.88,8-6.87,0-7.1-6.28-6.7-8.72A.87.87,0,0,1,420.27,79.84Z"/><path class="cls-16" d="M385.65,99.52a4.49,4.49,0,0,1-1.38.57,6.32,6.32,0,0,1-1.37.15,5.75,5.75,0,0,1-1.37-.15,4.26,4.26,0,0,1-1.38-.57,4.49,4.49,0,0,1,1.38-.57,6.32,6.32,0,0,1,1.37-.15,5.76,5.76,0,0,1,1.37.16A4.23,4.23,0,0,1,385.65,99.52Z"/><path class="cls-16" d="M385.65,105.48a4.49,4.49,0,0,1-1.38.57,6.32,6.32,0,0,1-1.37.15,5.75,5.75,0,0,1-1.37-.15,4.26,4.26,0,0,1-1.38-.57,4.49,4.49,0,0,1,1.38-.57,6.32,6.32,0,0,1,1.37-.15,5.76,5.76,0,0,1,1.37.16A4.23,4.23,0,0,1,385.65,105.48Z"/><path class="cls-16" d="M383.46,110.6a3.34,3.34,0,0,1-1.26.26,4.37,4.37,0,0,1-1.15-.15,4,4,0,0,1-1.07-.44,3.16,3.16,0,0,1-1-.84,3.13,3.13,0,0,1,1.26-.26,4.43,4.43,0,0,1,1.15.15,4.31,4.31,0,0,1,1.07.44A3.28,3.28,0,0,1,383.46,110.6Z"/><path class="cls-16" d="M454,98.34a4.23,4.23,0,0,1,1.38-.56,5.76,5.76,0,0,1,1.37-.16,5.82,5.82,0,0,1,1.37.16,4.23,4.23,0,0,1,1.38.56,4,4,0,0,1-1.38.57,5.82,5.82,0,0,1-1.37.16,5.76,5.76,0,0,1-1.37-.16A4,4,0,0,1,454,98.34Z"/><path class="cls-16" d="M454,104.3a4.23,4.23,0,0,1,1.38-.56,5.76,5.76,0,0,1,1.37-.16,5.82,5.82,0,0,1,1.37.16,4.23,4.23,0,0,1,1.38.56,4,4,0,0,1-1.38.57,5.82,5.82,0,0,1-1.37.16,5.76,5.76,0,0,1-1.37-.16A4,4,0,0,1,454,104.3Z"/><path class="cls-16" d="M455.76,109.43a3.25,3.25,0,0,1,1-.84,4.2,4.2,0,0,1,1.08-.45A4.37,4.37,0,0,1,459,108a3.55,3.55,0,0,1,1.26.26,3.4,3.4,0,0,1-1,.84,4.35,4.35,0,0,1-1.07.45,5,5,0,0,1-1.16.14A3.32,3.32,0,0,1,455.76,109.43Z"/><path class="cls-12" d="M435,438.84c9.35.43,21,.91,32.87-.21,0,0,5.69-13.16-7.75-14.29s-10.29-10.95-10.29-10.95c-4.16-.42-12.16-.48-18.58-1.11l-.64,20.31C430.53,435.9,432.5,438.72,435,438.84Z"/><polygon class="cls-25" points="189.33 289.73 191 293.12 194.74 293.67 192.03 296.3 192.67 300.03 189.33 298.27 185.98 300.03 186.62 296.3 183.92 293.67 187.66 293.12 189.33 289.73"/><polygon class="cls-25" points="203.18 289.73 204.85 293.12 208.59 293.67 205.89 296.3 206.52 300.03 203.18 298.27 199.84 300.03 200.47 296.3 197.77 293.67 201.51 293.12 203.18 289.73"/><polygon class="cls-25" points="217.03 289.73 218.71 293.12 222.44 293.67 219.74 296.3 220.38 300.03 217.03 298.27 213.69 300.03 214.33 296.3 211.62 293.67 215.36 293.12 217.03 289.73"/><polygon class="cls-25" points="230.88 289.73 232.56 293.12 236.3 293.67 233.59 296.3 234.23 300.03 230.88 298.27 227.54 300.03 228.18 296.3 225.47 293.67 229.21 293.12 230.88 289.73"/></g></g></svg>